PathFileType	4	(X/Y/Z)	TVC_60_Cal_03_0_static_RCNL2025.trc
DataRate	CameraRate	NumFrames	NumMarkers	Units	OrigDataRate	OrigDataStartFrame	OrigNumFrames
100	100	11	27	mm	100	310	354
Frame#	Time	R_Shoulder			L_Shoulder			C7			J_Notch			R_Elbow			L_Elbow			R_Wrist			L_Wrist			R_Asis			L_Asis			R_Psis			L_Psis			Sacral			Thoracic			Sternum			R_Thigh_Lateral			R_Knee_Lateral			R_Shank_Lateral			R_Ankle_Lateral			R_Heel			R_Toe			L_Thigh_Lateral			L_Knee_Lateral			L_Shank_Lateral			L_Ankle_Lateral			L_Heel			L_Toe		
		X1	Y1	Z1	X2	Y2	Z2	X3	Y3	Z3	X4	Y4	Z4	X5	Y5	Z5	X6	Y6	Z6	X7	Y7	Z7	X8	Y8	Z8	X9	Y9	Z9	X10	Y10	Z10	X11	Y11	Z11	X12	Y12	Z12	X13	Y13	Z13	X14	Y14	Z14	X15	Y15	Z15	X16	Y16	Z16	X17	Y17	Z17	X18	Y18	Z18	X19	Y19	Z19	X20	Y20	Z20	X21	Y21	Z21	X22	Y22	Z22	X23	Y23	Z23	X24	Y24	Z24	X25	Y25	Z25	X26	Y26	Z26	X27	Y27	Z27
310	3.09000000	-267.802704	1337.830811	-9.798891	-309.116241	1357.516846	-355.449219	-339.264099	1403.926147	-178.824265	-216.245575	1287.414917	-194.614670	-306.142181	995.566650	45.402000	-342.050446	1009.113831	-401.260742	-247.596481	781.433655	106.972343	-245.066116	799.580444	-450.544739	NaN	NaN	NaN	-217.836258	923.051331	-343.681580	-364.997070	909.982056	-117.747879	-380.984344	910.850708	-226.115692	-372.990707	910.416382	-171.931786	-368.646973	1187.548218	-178.413010	-163.924774	1096.229492	-196.549088	-210.074570	601.727783	4.609539	-239.816620	444.633759	-72.958923	-279.200348	229.150375	-37.948574	-329.776520	63.817688	-112.612587	-372.842133	59.251987	-160.746109	-199.899384	42.446930	-118.844490	-259.978394	634.245483	-397.464233	-244.482605	443.797577	-319.569214	-294.609222	257.244568	-353.278076	-332.684601	61.050709	-277.742157	-375.881927	62.386162	-234.345139	-205.186752	43.621952	-271.117493
311	3.10000000	-268.295380	1337.808472	-9.788809	-309.329132	1357.480103	-355.455383	-339.533386	1403.888428	-178.903275	-216.567719	1287.398560	-194.637360	-306.482452	995.627441	45.490948	-342.309082	1009.119385	-401.313416	-248.069382	781.590393	107.444855	-244.902176	799.728851	-450.292801	NaN	NaN	NaN	-218.038574	923.011353	-343.663086	-365.350189	909.769043	-117.873558	-381.279999	910.811584	-226.223862	-373.315094	910.290314	-172.048710	-368.867157	1187.504028	-178.509872	-164.384613	1096.178345	-196.603210	-210.278992	601.823608	4.571993	-239.981171	444.935577	-72.607491	-279.148987	229.126602	-38.008282	-329.763214	63.865059	-112.615471	-372.886627	59.311310	-160.716660	-200.023224	42.539444	-118.720734	-259.977783	634.244812	-397.465027	-244.464249	443.909790	-319.537903	-294.421265	257.193146	-352.997070	-332.673370	61.046696	-277.757690	-375.871490	62.294926	-234.347748	-205.739334	43.569813	-271.393921
312	3.11000000	-268.688507	1337.804199	-9.910539	-309.617310	1357.565552	-355.564667	-339.890808	1403.977661	-178.913574	-216.804657	1287.399536	-194.745026	-306.903992	995.691284	45.503304	-342.471588	1009.174988	-401.408478	-248.365341	781.741272	107.555763	-245.563194	799.898499	-450.625198	NaN	NaN	NaN	-218.344727	923.026489	-343.674225	-365.745667	909.894897	-117.972145	-381.590454	910.774902	-226.195618	-373.668060	910.334900	-172.083881	-369.265320	1187.545532	-178.567978	-164.621872	1096.192749	-196.604279	-210.478027	601.744873	4.536115	-239.974030	444.928864	-72.606750	-279.180267	229.234879	-37.940208	-329.802277	63.866146	-112.578705	-372.903137	59.350716	-160.712173	-199.906540	42.498188	-118.715477	-260.066254	634.302490	-397.770874	-244.436676	443.874908	-319.472504	-294.559235	257.352325	-353.125854	-332.668488	61.043869	-277.735413	-375.891388	62.395374	-234.319504	-205.661453	43.559650	-271.315521
313	3.12000000	-269.064941	1337.766724	-9.947679	-309.821381	1357.590210	-355.697754	-340.177155	1403.882202	-179.041580	-217.222565	1287.375000	-194.717987	-307.301086	995.769531	45.603958	-342.703125	1009.208191	-401.524628	-248.541443	781.775574	107.513130	-245.724815	799.931152	-450.583084	NaN	NaN	NaN	-218.588211	923.049011	-343.751801	-366.223175	910.000366	-118.021454	-381.821808	910.890625	-226.297409	-374.022491	910.445496	-172.159431	-369.552124	1187.557739	-178.627899	-165.103104	1096.139526	-196.581192	-210.602768	601.710693	4.487857	-240.257935	445.103912	-72.401581	-279.228363	229.268906	-38.010654	-329.734711	63.907295	-112.579002	-372.916718	59.425838	-160.705093	-199.861465	42.614067	-118.676842	-260.199219	634.366943	-397.834961	-244.350952	443.944122	-319.606964	-294.341553	257.195709	-352.945099	-332.646515	61.073727	-277.791046	-375.874908	62.402245	-234.329529	-205.660995	43.552685	-271.327698
314	3.13000000	-269.414093	1337.741089	-10.033838	-310.085663	1357.704468	-355.745087	-340.533142	1404.059937	-179.138992	-217.458725	1287.382324	-194.777924	-307.644440	995.911438	45.583191	-342.884460	1009.258240	-401.669098	-249.121964	781.824463	107.820969	-245.737106	799.955902	-450.711395	NaN	NaN	NaN	-218.862839	923.102661	-343.778961	-366.570618	910.016602	-118.131317	-382.226837	911.011597	-226.282578	-374.398727	910.514099	-172.206947	-369.812195	1187.401245	-178.945511	-165.307953	1096.196655	-196.549072	-211.113464	601.390930	4.486193	-240.034119	445.034332	-72.666267	-279.127319	229.238327	-38.110283	-329.693481	63.937225	-112.606033	-372.739166	59.441738	-160.721268	-199.873550	42.672024	-118.902351	-260.301453	634.296875	-397.840912	-244.355484	443.912140	-319.541595	-294.318420	257.181335	-353.029053	-332.578033	61.119545	-277.777496	-375.833679	62.445534	-234.354034	-205.614822	43.549675	-271.294250
315	3.14000000	-269.768646	1337.817627	-10.146424	-310.341705	1357.694824	-355.969299	-341.294189	1404.501099	-179.041367	-217.765930	1287.415527	-194.819016	-308.077209	995.958374	45.479977	-343.198395	1009.091431	-401.931854	-249.756973	781.934326	107.900436	-246.318024	799.971680	-450.997284	NaN	NaN	NaN	-219.037552	923.175293	-343.820801	-366.925415	909.955200	-118.212791	-382.471283	911.022217	-226.376755	-374.698349	910.488708	-172.294773	-370.176270	1187.661865	-178.914581	-165.754257	1096.147949	-196.620102	-211.248184	601.403992	4.405780	-240.081818	445.084106	-72.667992	-278.959778	229.173767	-38.153988	-329.610718	63.977932	-112.595978	-372.633667	59.421162	-160.774170	-199.789230	42.722820	-118.715431	-260.510162	634.336060	-397.747070	-244.297607	444.048828	-319.510803	-294.444092	257.218109	-353.203705	-332.575165	61.083733	-277.799927	-375.839935	62.511890	-234.373047	-205.728973	43.569981	-271.381165
316	3.15000000	-270.137482	1337.820312	-10.149740	-310.596375	1357.710938	-356.069366	-341.512451	1404.564331	-179.142685	-218.093643	1287.381836	-194.848633	-308.543213	996.069946	45.554806	-343.378998	1009.013611	-402.017487	-250.534073	781.962219	108.102226	-246.581451	800.007721	-451.139740	NaN	NaN	NaN	-219.159500	923.394958	-344.259125	-367.361115	910.049194	-118.274384	-382.890564	910.985718	-226.493134	-375.125839	910.517456	-172.383759	-370.520020	1187.692383	-179.024948	-165.947662	1096.186157	-196.621658	-211.540695	601.427429	4.525770	-239.896774	444.971771	-72.827965	-278.880432	229.137024	-38.079597	-329.581451	63.993855	-112.604935	-372.662140	59.407055	-160.761063	-199.804901	42.640305	-118.951637	-260.608795	634.375061	-397.670349	-244.188156	443.995087	-319.468048	-294.397919	257.185608	-353.234039	-332.589844	61.090023	-277.793518	-375.845123	62.541378	-234.341599	-205.627823	43.627693	-271.311432
317	3.16000000	-270.623138	1337.927612	-10.203352	-310.809570	1357.630737	-356.181915	-341.958618	1404.572876	-179.127579	-218.376755	1287.413086	-194.993835	-309.002899	996.065735	45.563030	-343.655670	1009.060120	-402.155548	-251.366776	782.011963	108.080788	-246.706413	800.014679	-451.268753	NaN	NaN	NaN	-219.480133	923.352173	-344.420502	-367.738586	910.078674	-118.370766	-383.234985	910.982300	-226.517578	-375.486786	910.530487	-172.444172	-370.785309	1187.673828	-179.219910	-166.341354	1096.158447	-196.599991	-211.595963	601.382629	4.396976	-240.044312	445.021759	-72.811462	-278.686981	229.125458	-38.218403	-329.518097	64.057587	-112.686142	-372.772858	59.480755	-160.774673	-199.856812	42.672558	-118.738899	-260.713226	634.275940	-397.783905	-244.310806	443.963379	-319.577362	-294.375580	257.169098	-352.990967	-332.574493	61.060890	-277.805817	-375.850464	62.471378	-234.358521	-205.709641	43.579903	-271.426941
318	3.17000000	-271.021027	1337.820679	-10.265090	-311.100281	1357.573486	-356.274017	-341.856232	1404.179199	-179.427292	-218.722122	1287.328979	-195.000687	-309.542603	996.142212	45.482212	-343.862152	1008.966370	-402.143158	-252.126755	781.859314	108.223000	-246.848282	799.977417	-451.251633	NaN	NaN	NaN	-219.691666	923.244812	-344.346893	-368.036407	909.675354	-118.550720	-383.542023	910.938904	-226.580734	-375.789215	910.307129	-172.565727	-371.142456	1187.655640	-179.343277	-166.706238	1096.081909	-196.639832	-211.547043	601.794495	4.483675	-240.018234	445.026794	-72.844131	-278.653595	229.119507	-38.194660	-329.527161	64.039406	-112.650826	-372.883759	59.429909	-160.863113	-199.979477	42.735203	-118.786835	-260.857727	634.353699	-397.878174	-244.409500	443.944275	-319.606934	-294.447723	257.239410	-353.267029	-332.541351	61.006622	-277.793518	-375.851654	62.464600	-234.357788	-205.673874	43.568752	-271.317566
319	3.18000000	-271.445038	1337.819458	-10.434570	-311.360077	1357.554810	-356.345825	-342.540253	1404.380371	-179.393494	-219.070801	1287.293701	-195.066513	-309.861511	996.078186	45.349800	-344.011810	1009.112671	-402.286072	-253.057404	781.906677	108.546829	-247.028755	799.921204	-451.364548	NaN	NaN	NaN	-220.083710	922.915405	-343.967133	-368.403046	909.703613	-118.678215	-383.765167	910.739258	-226.818542	-376.084106	910.221436	-172.748379	-371.481445	1187.664795	-179.390656	-166.906982	1096.068115	-196.624710	-211.734146	601.945129	4.385149	-239.849609	444.899017	-73.085098	-278.406158	229.056870	-38.551170	-329.531189	64.085327	-112.705185	-372.891510	59.433228	-160.853714	-199.962936	42.655067	-118.973579	-260.972809	634.136963	-398.329742	-244.447464	443.905579	-319.553802	-294.476532	257.186340	-353.358459	-332.574158	60.976784	-277.816193	-375.860870	62.360310	-234.351685	-205.714737	43.573254	-271.348663
320	3.19000000	-271.795013	1337.798584	-10.498103	-311.653290	1357.428833	-356.377686	-342.545135	1404.033936	-179.571060	-219.398178	1287.257812	-195.092972	-310.335541	996.115295	45.297890	-344.217468	1008.989075	-402.398682	-253.608490	781.988464	108.446068	-247.245827	799.870361	-451.435577	NaN	NaN	NaN	-220.362640	922.845032	-344.011993	-368.703156	909.664795	-118.724182	-384.048615	910.711121	-226.859070	-376.375885	910.187958	-172.791626	-371.817993	1187.573242	-179.519089	-167.256882	1096.032715	-196.562927	-211.890289	601.899780	4.321666	-239.821594	444.884521	-73.158798	-278.104156	228.955307	-38.753784	-329.440033	64.000504	-112.807579	-372.694672	59.312649	-160.968170	-200.085114	42.670959	-118.947411	-261.088776	634.122986	-398.502350	-244.663681	443.816742	-319.703400	-294.487976	257.016388	-353.318848	-332.644653	60.952751	-277.794678	-375.831421	62.320290	-234.376648	-205.713120	43.504395	-271.345642
